<svg width="256" height="52" viewBox="0 0 256 52" fill="none" xmlns="http://www.w3.org/2000/svg">
<rect width="256" height="52" fill="black"/>
<path d="M15 35.8912V33.1459L17.0011 32.7174V19.58L15 19.1515V16.3927H30.8897V22.1378H27.3778L27.285 20.0085H21.6527V24.5216H28.2127V28.1106H21.6527V32.7174L23.6539 33.1459V35.8912H15Z" fill="white"/>
<path d="M37.7147 36.1725C36.2305 36.1725 35.0642 35.6993 34.2161 34.7529C33.3679 33.8066 32.9439 32.3424 32.9439 30.3604V24.5885L31.4066 24.16V21.4013H37.5955V30.3872C37.5955 31.8424 38.1874 32.5701 39.3713 32.5701C39.7159 32.5701 40.056 32.5076 40.3917 32.3826C40.7363 32.2487 41.0411 32.0522 41.3062 31.7933V24.5885L39.7424 24.16V21.4013H45.9578V32.7174L47.7469 33.1459V35.8912H41.9158L41.611 34.244C40.6568 35.5296 39.358 36.1725 37.7147 36.1725Z" fill="white"/>
<path d="M48.6613 35.8912V33.1459L50.3576 32.7174V18.1873L48.3432 17.7587V15H55.0092V32.7174L56.6923 33.1459V35.8912H48.6613Z" fill="white"/>
<path d="M57.3284 35.8912V33.1459L59.0247 32.7174V18.1873L57.0103 17.7587V15H63.6763V32.7174L65.3594 33.1459V35.8912H57.3284Z" fill="white"/>
<path d="M81.0901 36.1725C79.5175 36.1725 78.1215 36.0207 76.9023 35.7171C75.6831 35.4136 74.4683 34.8422 73.2579 34.003V28.9409H76.8493L77.2469 31.5389C77.5296 31.8603 78.0288 32.1326 78.7444 32.3558C79.46 32.5701 80.2419 32.6772 81.0901 32.6772C82.8836 32.6772 83.7803 32.0433 83.7803 30.7756C83.7803 30.1952 83.5595 29.7042 83.1177 29.3025C82.676 28.8918 81.9073 28.4722 80.8118 28.0436C79.1596 27.508 77.8035 26.9634 76.7433 26.4098C75.6831 25.8563 74.8924 25.2001 74.3711 24.4412C73.8587 23.6824 73.6024 22.7405 73.6024 21.6156C73.6024 20.5353 73.9073 19.5934 74.5169 18.7899C75.1265 17.9774 75.9658 17.3391 77.0348 16.8749C78.1039 16.4106 79.3275 16.1651 80.7058 16.1383C82.2784 16.1026 83.6699 16.2633 84.8803 16.6204C86.0907 16.9686 87.1597 17.4998 88.0874 18.214V22.9146H84.6418L84.0984 20.3032C83.798 20.1514 83.3695 20.013 82.8129 19.888C82.2563 19.763 81.6644 19.7005 81.0371 19.7005C80.2331 19.7005 79.5661 19.8612 79.036 20.1826C78.5059 20.504 78.2408 20.9861 78.2408 21.6289C78.2408 21.9771 78.3424 22.2896 78.5456 22.5664C78.7488 22.8342 79.1066 23.1065 79.6191 23.3833C80.1315 23.6511 80.8471 23.9636 81.766 24.3207C83.957 24.9724 85.618 25.7893 86.7489 26.7714C87.8886 27.7445 88.4585 29.0703 88.4585 30.7488C88.4585 31.9005 88.1492 32.8825 87.5308 33.695C86.9123 34.4985 86.0509 35.1145 84.9466 35.543C83.8422 35.9626 82.5567 36.1725 81.0901 36.1725Z" fill="white"/>
<path d="M95.7076 36.1992C94.2056 36.1992 93.0615 35.7975 92.2752 34.994C91.4977 34.1815 91.109 32.9004 91.109 31.1505V24.6421H89.3199V21.4013H91.109V17.8257H95.7341V21.4013H98.0798V24.6421H95.7341V31.1371C95.7341 31.6103 95.8401 31.9406 96.0521 32.1281C96.2642 32.3156 96.5557 32.4094 96.9268 32.4094C97.0858 32.4094 97.2449 32.4004 97.4039 32.3826C97.5629 32.3647 97.7219 32.3424 97.881 32.3156L98.199 35.8243C97.3597 36.0742 96.5292 36.1992 95.7076 36.1992Z" fill="white"/>
<path d="M103.879 36.1725C102.492 36.1725 101.361 35.7752 100.487 34.9806C99.612 34.186 99.1746 33.128 99.1746 31.8067C99.1746 30.4497 99.7136 29.3382 100.791 28.4722C101.878 27.6062 103.517 27.1732 105.708 27.1732H107.206V26.3161C107.206 25.7358 107.042 25.2447 106.715 24.843C106.388 24.4323 105.872 24.227 105.165 24.227C104.573 24.227 104.056 24.3743 103.614 24.6689L103.296 26.517H100.023L99.9565 22.486C100.769 22.12 101.618 21.803 102.501 21.5352C103.393 21.2674 104.387 21.1335 105.483 21.1335C107.435 21.1335 108.986 21.5888 110.134 22.4994C111.283 23.4011 111.857 24.6912 111.857 26.3696V31.713C111.857 31.9183 111.857 32.1192 111.857 32.3156C111.866 32.512 111.888 32.6995 111.924 32.8781L113.474 33.1459V35.8912H108.041C107.926 35.7305 107.802 35.5163 107.669 35.2484C107.537 34.9806 107.444 34.7127 107.391 34.4449C106.958 34.9895 106.472 35.4136 105.933 35.7171C105.394 36.0207 104.71 36.1725 103.879 36.1725ZM105.311 32.8513C105.646 32.8513 105.982 32.7843 106.318 32.6504C106.662 32.5076 106.958 32.2978 107.206 32.021V29.9319H105.761C105.134 29.9319 104.648 30.0703 104.303 30.347C103.968 30.6238 103.8 30.9898 103.8 31.4451C103.8 31.8826 103.941 32.2263 104.224 32.4763C104.507 32.7263 104.869 32.8513 105.311 32.8513Z" fill="white"/>
<path d="M120.315 36.1725C118.893 36.1725 117.669 35.8555 116.644 35.2216C115.62 34.5878 114.833 33.7173 114.286 32.6102C113.738 31.5032 113.464 30.2399 113.464 28.8203V28.5123C113.464 27.0571 113.747 25.7759 114.312 24.6689C114.886 23.5618 115.681 22.6958 116.697 22.0709C117.722 21.4459 118.915 21.1335 120.276 21.1335C121.645 21.1335 122.816 21.3433 123.788 21.7629C124.768 22.1825 125.541 22.6199 126.107 23.0753L126.027 27.6419H122.568L122.012 25.0171C121.862 24.8653 121.658 24.7403 121.402 24.6421C121.155 24.5439 120.947 24.4948 120.779 24.4948C119.79 24.4948 119.096 24.8207 118.699 25.4724C118.31 26.1241 118.115 27.1374 118.115 28.5123V28.8203C118.115 29.7756 118.226 30.53 118.447 31.0836C118.676 31.6282 118.964 32.0165 119.308 32.2487C119.653 32.4808 120.006 32.5968 120.368 32.5968C120.925 32.5968 121.353 32.4585 121.654 32.1817C121.963 31.896 122.202 31.4809 122.37 30.9363H126.266L126.319 31.0166C126.107 32.1683 125.775 33.128 125.325 33.8958C124.874 34.6547 124.247 35.2261 123.443 35.61C122.648 35.985 121.605 36.1725 120.315 36.1725Z" fill="white"/>
<path d="M126.574 35.8912V33.1459L128.27 32.7174V18.1873L126.256 17.7587V15H132.895V27.2401L136.168 24.3743V24.3609L134.737 24.1198V21.4013H142.993V24.16L141.138 24.7091L137.838 27.4678L141.655 32.6638L143.258 33.1459V35.8912H135.652V33.3334L136.526 33.0254L136.5 32.9718L134.591 30.1997L132.895 31.6192V32.7174L134.26 33.1459V35.8912H126.574Z" fill="white"/>
<path d="M150.243 35.8912V33.1459L151.595 32.945L157.346 16.3927H162.382L168.147 32.945L169.499 33.1459V35.8912H162.29V33.1459L163.549 32.9049L162.965 30.7889H156.763L156.207 32.9049L157.466 33.1459V35.8912H150.243ZM157.744 27.4946H161.971L160.09 21.5888L159.878 20.9058H159.798L159.573 21.6557L157.744 27.4946Z" fill="white"/>
<path d="M169.157 41.4622V38.7035L170.933 38.275V24.5885L168.919 24.16V21.4013H175.293L175.452 23.0351C175.841 22.428 176.309 21.9593 176.857 21.6289C177.405 21.2986 178.076 21.1335 178.871 21.1335C180.002 21.1335 180.974 21.4504 181.787 22.0843C182.6 22.7092 183.223 23.5886 183.656 24.7225C184.097 25.8563 184.318 27.1732 184.318 28.673V28.9543C184.318 30.4006 184.097 31.6683 183.656 32.7575C183.223 33.8378 182.595 34.677 181.774 35.2752C180.952 35.8734 179.963 36.1725 178.805 36.1725C177.427 36.1725 176.345 35.6457 175.558 34.5922V38.275L177.175 38.7035V41.4622H169.157ZM177.427 32.5968C178.266 32.5968 178.849 32.2799 179.176 31.646C179.503 31.0032 179.667 30.106 179.667 28.9543V28.673C179.667 27.4856 179.49 26.5348 179.136 25.8206C178.792 25.0974 178.213 24.7358 177.4 24.7358C176.543 24.7358 175.929 25.093 175.558 25.8072V31.713C175.929 32.3022 176.552 32.5968 177.427 32.5968Z" fill="white"/>
<path d="M184.494 41.4622V38.7035L186.269 38.275V24.5885L184.255 24.16V21.4013H190.629L190.788 23.0351C191.177 22.428 191.645 21.9593 192.193 21.6289C192.741 21.2986 193.412 21.1335 194.208 21.1335C195.338 21.1335 196.31 21.4504 197.123 22.0843C197.936 22.7092 198.559 23.5886 198.992 24.7225C199.433 25.8563 199.654 27.1732 199.654 28.673V28.9543C199.654 30.4006 199.433 31.6683 198.992 32.7575C198.559 33.8378 197.932 34.677 197.11 35.2752C196.288 35.8734 195.299 36.1725 194.141 36.1725C192.763 36.1725 191.681 35.6457 190.894 34.5922V38.275L192.511 38.7035V41.4622H184.494ZM192.763 32.5968C193.602 32.5968 194.185 32.2799 194.512 31.646C194.839 31.0032 195.003 30.106 195.003 28.9543V28.673C195.003 27.4856 194.826 26.5348 194.473 25.8206C194.128 25.0974 193.549 24.7358 192.737 24.7358C191.88 24.7358 191.266 25.093 190.894 25.8072V31.713C191.266 32.3022 191.888 32.5968 192.763 32.5968Z" fill="white"/>
<path d="M215.009 36.1725C213.171 36.1725 211.532 35.7975 210.092 35.0475C208.652 34.2976 207.521 33.2129 206.699 31.7933C205.878 30.3649 205.467 28.6329 205.467 26.5973V25.7001C205.467 23.8252 205.842 22.1691 206.593 20.7317C207.353 19.2854 208.431 18.156 209.827 17.3436C211.232 16.5222 212.897 16.1115 214.823 16.1115C216.166 16.1115 217.443 16.2945 218.653 16.6606C219.872 17.0177 221.003 17.6337 222.046 18.5087V23.5306H218.666L218.203 20.6513C217.752 20.3389 217.266 20.0934 216.745 19.9148C216.224 19.7362 215.636 19.647 214.982 19.647C213.516 19.647 212.336 20.1737 211.444 21.2272C210.551 22.2718 210.105 23.7538 210.105 25.6733V26.5973C210.105 27.7936 210.313 28.8471 210.728 29.7578C211.143 30.6595 211.722 31.3648 212.464 31.8737C213.215 32.3826 214.081 32.637 215.062 32.637C215.583 32.637 216.113 32.5834 216.652 32.4763C217.191 32.3603 217.712 32.2085 218.216 32.021L218.68 29.2623H222.072V34.1771C221.304 34.7127 220.323 35.1815 219.13 35.5832C217.937 35.976 216.564 36.1725 215.009 36.1725Z" fill="white"/>
<path d="M230.567 36.1725C229.092 36.1725 227.828 35.8644 226.777 35.2484C225.734 34.6235 224.935 33.7575 224.378 32.6504C223.83 31.5344 223.557 30.2443 223.557 28.7802V28.5123C223.557 27.066 223.83 25.7893 224.378 24.6823C224.935 23.5752 225.734 22.7092 226.777 22.0843C227.819 21.4504 229.074 21.1335 230.541 21.1335C232.016 21.1335 233.271 21.4459 234.304 22.0709C235.347 22.6958 236.142 23.5618 236.69 24.6689C237.246 25.7759 237.525 27.0571 237.525 28.5123V28.7802C237.525 30.2354 237.246 31.521 236.69 32.637C236.142 33.7441 235.347 34.6101 234.304 35.235C233.271 35.86 232.025 36.1725 230.567 36.1725ZM230.567 32.5968C231.415 32.5968 232.016 32.2576 232.369 31.5791C232.723 30.8916 232.9 29.9587 232.9 28.7802V28.5123C232.9 27.3696 232.718 26.4545 232.356 25.767C232.003 25.0706 231.398 24.7225 230.541 24.7225C229.684 24.7225 229.078 25.0706 228.725 25.767C228.38 26.4545 228.208 27.3696 228.208 28.5123V28.7802C228.208 29.9676 228.38 30.9005 228.725 31.5791C229.078 32.2576 229.692 32.5968 230.567 32.5968Z" fill="white"/>
<path d="M239.375 35.8912V32.0076H244V35.8912H239.375Z" fill="white"/>
</svg>
